HIERARCHY
ROOT hips
{
	OFFSET -0.003675 0.299928 -0.021708
	CHANNELS 6 Xposition Yposition Zposition Xrotation Yrotation Zrotation
	JOINT LowerBack
	{
		OFFSET 0.000919 0.177588 0.009275
		CHANNELS 3 Xrotation Yrotation Zrotation
		JOINT spine
		{
			OFFSET 0.000919 0.177588 0.009275
			CHANNELS 3 Xrotation Yrotation Zrotation
			JOINT chest
			{
				OFFSET 0.000456 0.100015 0.004638
				CHANNELS 3 Xrotation Yrotation Zrotation
				JOINT neck
				{
					OFFSET 0.000456 0.100015 0.004638
					CHANNELS 3 Xrotation Yrotation Zrotation
					JOINT head
					{
						OFFSET 0.000924 0.155147 0.009274
						CHANNELS 6 Xposition Yposition Zposition Xrotation Yrotation Zrotation
						End Site
						{
							OFFSET 0.000000 0.153400 0.000000
						}
					}
				}
				JOINT shoulder.L
				{
					OFFSET 0.019937 0.078966 0.057518
					CHANNELS 6 Xposition Yposition Zposition Yrotation Xrotation Zrotation
					JOINT upper_arm.L
					{
						OFFSET 0.177024 -0.020465 -0.095062
						CHANNELS 6 Xposition Yposition Zposition Xrotation Yrotation Zrotation
						JOINT forearm.L
						{
							OFFSET 0.247100 -0.135500 -0.061800
							CHANNELS 3 Xrotation Yrotation Zrotation
							JOINT hand.L
							{
								OFFSET 0.217000 -0.143000 0.039300
								CHANNELS 3 Xrotation Yrotation Zrotation
								JOINT palm.01.L
								{
									OFFSET 0.021770 -0.038291 0.012954
									CHANNELS 6 Xposition Yposition Zposition Yrotation Xrotation Zrotation
									JOINT f_index.01.L
									{
										OFFSET 0.053215 -0.044137 0.008236
										CHANNELS 3 Xrotation Yrotation Zrotation
										JOINT f_index.02.L
										{
											OFFSET 0.036108 -0.024723 -0.010656
											CHANNELS 3 Xrotation Yrotation Zrotation
											JOINT f_index.03.L
											{
												OFFSET 0.021342 -0.014948 -0.010846
												CHANNELS 3 Xrotation Yrotation Zrotation
												End Site
												{
													OFFSET 0.015600 -0.009860 -0.013421
												}
											}
										}
									}
									JOINT thumb.01.L
									{
										OFFSET -0.009090 -0.002348 -0.024223
										CHANNELS 6 Xposition Yposition Zposition Xrotation Yrotation Zrotation
										JOINT thumb.02.L
										{
											OFFSET 0.019713 -0.035076 -0.011120
											CHANNELS 3 Xrotation Yrotation Zrotation
											JOINT thumb.03.L
											{
												OFFSET 0.024877 -0.021748 -0.005176
												CHANNELS 3 Xrotation Yrotation Zrotation
												End Site
												{
													OFFSET 0.016125 -0.013029 -0.001569
												}
											}
										}
									}
								}
								JOINT palm.02.L
								{
									OFFSET 0.032823 -0.025104 0.012281
									CHANNELS 6 Xposition Yposition Zposition Yrotation Xrotation Zrotation
									JOINT f_middle.01.L
									{
										OFFSET 0.055723 -0.038469 0.008037
										CHANNELS 3 Xrotation Yrotation Zrotation
										JOINT f_middle.02.L
										{
											OFFSET 0.038167 -0.027473 -0.015582
											CHANNELS 3 Xrotation Yrotation Zrotation
											JOINT f_middle.03.L
											{
												OFFSET 0.021707 -0.016587 -0.017037
												CHANNELS 3 Xrotation Yrotation Zrotation
												End Site
												{
													OFFSET 0.014112 -0.010584 -0.014294
												}
											}
										}
									}
								}
								JOINT palm.03.L
								{
									OFFSET 0.039230 -0.011402 0.008390
									CHANNELS 6 Xposition Yposition Zposition Yrotation Xrotation Zrotation
									JOINT f_ring.01.L
									{
										OFFSET 0.061796 -0.031470 0.007910
										CHANNELS 3 Xrotation Yrotation Zrotation
										JOINT f_ring.02.L
										{
											OFFSET 0.033092 -0.023401 -0.019127
											CHANNELS 3 Xrotation Yrotation Zrotation
											JOINT f_ring.03.L
											{
												OFFSET 0.021392 -0.015362 -0.017824
												CHANNELS 3 Xrotation Yrotation Zrotation
												End Site
												{
													OFFSET 0.008670 -0.007297 -0.014686
												}
											}
										}
									}
								}
								JOINT palm.04.L
								{
									OFFSET 0.043417 0.002450 0.002889
									CHANNELS 6 Xposition Yposition Zposition Yrotation Xrotation Zrotation
									JOINT f_pinky.01.L
									{
										OFFSET 0.069986 -0.026156 0.003627
										CHANNELS 3 Xrotation Yrotation Zrotation
										JOINT f_pinky.02.L
										{
											OFFSET 0.018520 -0.012813 -0.016429
											CHANNELS 3 Xrotation Yrotation Zrotation
											JOINT f_pinky.03.L
											{
												OFFSET 0.013822 -0.009796 -0.014947
												CHANNELS 3 Xrotation Yrotation Zrotation
												End Site
												{
													OFFSET 0.007238 -0.006103 -0.011657
												}
											}
										}
									}
								}
							}
						}
					}
				}
				JOINT shoulder.R
				{
					OFFSET -0.016662 0.078957 0.057696
					CHANNELS 6 Xposition Yposition Zposition Yrotation Xrotation Zrotation
					JOINT upper_arm.R
					{
						OFFSET -0.176972 -0.020537 -0.095144
						CHANNELS 6 Xposition Yposition Zposition Xrotation Yrotation Zrotation
						JOINT forearm.R
						{
							OFFSET -0.247100 -0.135500 -0.061800
							CHANNELS 3 Xrotation Yrotation Zrotation
							JOINT hand.R
							{
								OFFSET -0.217000 -0.143000 0.039300
								CHANNELS 3 Xrotation Yrotation Zrotation
								JOINT palm.01.R
								{
									OFFSET -0.021773 -0.038278 0.012988
									CHANNELS 6 Xposition Yposition Zposition Yrotation Xrotation Zrotation
									JOINT f_index.01.R
									{
										OFFSET -0.053212 -0.044139 0.008249
										CHANNELS 3 Xrotation Yrotation Zrotation
										JOINT f_index.02.R
										{
											OFFSET -0.036049 -0.024835 -0.010634
											CHANNELS 3 Xrotation Yrotation Zrotation
											JOINT f_index.03.R
											{
												OFFSET -0.021371 -0.014881 -0.010866
												CHANNELS 3 Xrotation Yrotation Zrotation
												End Site
												{
													OFFSET -0.015584 -0.009883 -0.013422
												}
											}
										}
									}
									JOINT thumb.01.R
									{
										OFFSET 0.009113 -0.002381 -0.024211
										CHANNELS 6 Xposition Yposition Zposition Xrotation Yrotation Zrotation
										JOINT thumb.02.R
										{
											OFFSET -0.019694 -0.035097 -0.011088
											CHANNELS 3 Xrotation Yrotation Zrotation
											JOINT thumb.03.R
											{
												OFFSET -0.024867 -0.021762 -0.005168
												CHANNELS 3 Xrotation Yrotation Zrotation
												End Site
												{
													OFFSET -0.016120 -0.013036 -0.001565
												}
											}
										}
									}
								}
								JOINT palm.02.R
								{
									OFFSET -0.032828 -0.025095 0.012286
									CHANNELS 6 Xposition Yposition Zposition Yrotation Xrotation Zrotation
									JOINT f_middle.01.R
									{
										OFFSET -0.055721 -0.038472 0.008040
										CHANNELS 3 Xrotation Yrotation Zrotation
										JOINT f_middle.02.R
										{
											OFFSET -0.038101 -0.027593 -0.015557
											CHANNELS 3 Xrotation Yrotation Zrotation
											JOINT f_middle.03.R
											{
												OFFSET -0.021730 -0.016530 -0.017054
												CHANNELS 3 Xrotation Yrotation Zrotation
												End Site
												{
													OFFSET -0.014096 -0.010608 -0.014293
												}
											}
										}
									}
								}
								JOINT palm.03.R
								{
									OFFSET -0.039192 -0.011488 0.008390
									CHANNELS 6 Xposition Yposition Zposition Yrotation Xrotation Zrotation
									JOINT f_ring.01.R
									{
										OFFSET -0.061839 -0.031387 0.007876
										CHANNELS 3 Xrotation Yrotation Zrotation
										JOINT f_ring.02.R
										{
											OFFSET -0.033068 -0.023437 -0.019125
											CHANNELS 3 Xrotation Yrotation Zrotation
											JOINT f_ring.03.R
											{
												OFFSET -0.021371 -0.015393 -0.017822
												CHANNELS 3 Xrotation Yrotation Zrotation
												End Site
												{
													OFFSET -0.008654 -0.007321 -0.014684
												}
											}
										}
									}
								}
								JOINT palm.04.R
								{
									OFFSET -0.043421 0.002443 0.002845
									CHANNELS 6 Xposition Yposition Zposition Yrotation Xrotation Zrotation
									JOINT f_pinky.01.R
									{
										OFFSET -0.069983 -0.026169 0.003599
										CHANNELS 3 Xrotation Yrotation Zrotation
										JOINT f_pinky.02.R
										{
											OFFSET -0.018501 -0.012842 -0.016428
											CHANNELS 3 Xrotation Yrotation Zrotation
											JOINT f_pinky.03.R
											{
												OFFSET -0.013806 -0.009821 -0.014946
												CHANNELS 3 Xrotation Yrotation Zrotation
												End Site
												{
													OFFSET -0.007226 -0.006121 -0.011655
												}
											}
										}
									}
								}
							}
						}
					}
				}
			}
		}
	}
	JOINT pelvis.L
	{
		OFFSET 0.000000 0.000000 0.000000
		CHANNELS 6 Xposition Yposition Zposition Xrotation Yrotation Zrotation
		JOINT thigh.L
		{
			OFFSET 0.101675 0.001054 -0.000000
			CHANNELS 3 Xrotation Yrotation Zrotation
			JOINT shin.L
			{
				OFFSET 0.000000 -0.534800 0.041000
				CHANNELS 3 Xrotation Yrotation Zrotation
				JOINT foot.L
				{
					OFFSET 0.000000 -0.452000 -0.044800
					CHANNELS 3 Xrotation Yrotation Zrotation
					JOINT toe.L
					{
						OFFSET -0.000000 -0.068500 0.109600
						CHANNELS 3 Xrotation Yrotation Zrotation
						End Site
						{
							OFFSET -0.000000 0.000000 0.067200
						}
					}
				}
				JOINT heel.L
				{
					OFFSET 0.000000 -0.452000 -0.044800
					CHANNELS 3 Xrotation Yrotation Zrotation
					JOINT heel.02.L
					{
						OFFSET -0.038000 -0.085200 0.016200
						CHANNELS 6 Xposition Yposition Zposition Xrotation Yrotation Zrotation
						End Site
						{
							OFFSET 0.080000 -0.000000 0.000000
						}
					}
				}
			}
		}
	}
	JOINT pelvis.R
	{
		OFFSET 0.000000 0.000000 0.000000
		CHANNELS 6 Xposition Yposition Zposition Xrotation Yrotation Zrotation
		JOINT thigh.R
		{
			OFFSET -0.094325 0.001054 0.000000
			CHANNELS 3 Xrotation Yrotation Zrotation
			JOINT shin.R
			{
				OFFSET 0.000000 -0.534800 0.041000
				CHANNELS 3 Xrotation Yrotation Zrotation
				JOINT foot.R
				{
					OFFSET 0.000000 -0.452000 -0.044800
					CHANNELS 3 Xrotation Yrotation Zrotation
					JOINT toe.R
					{
						OFFSET -0.000000 -0.068500 0.109600
						CHANNELS 3 Xrotation Yrotation Zrotation
						End Site
						{
							OFFSET -0.000000 0.000000 0.067200
						}
					}
				}
				JOINT heel.R
				{
					OFFSET 0.000000 -0.452000 -0.044800
					CHANNELS 3 Xrotation Yrotation Zrotation
					JOINT heel.02.R
					{
						OFFSET 0.038000 -0.085200 0.016200
						CHANNELS 6 Xposition Yposition Zposition Xrotation Yrotation Zrotation
						End Site
						{
							OFFSET -0.080000 0.000000 -0.000000
						}
					}
				}
			}
		}
	}
}
MOTION
Frames: 4
Frame Time: 0.041667
-0.002467 0.221719 0.004188 -10.937500 4.605412 93.584117 -0.000001 0.000000 -0.000000 0.000000 0.000000 0.000000 0.000001 -0.000001 -0.000000 -0.000000 -0.000000 -0.000001 0.000924 0.155148 0.009274 -10.833279 0.021673 -18.405804 0.019937 0.078966 0.057518 -4.291026 7.442779 48.723680 0.177025 -0.020465 -0.095062 -47.991860 -12.432986 -29.490308 30.439319 -20.339026 87.446085 -0.000000 0.000004 0.000004 0.021770 -0.038291 0.012954 -0.000004 0.000000 -0.000009 -0.000001 -0.000002 0.000005 0.000003 -0.000000 0.000005 0.000001 0.000001 -0.000002 -0.009090 -0.002348 -0.024223 -0.000004 -0.000001 0.000003 0.000000 0.000000 0.000003 0.000005 -0.000003 0.000001 0.032823 -0.025104 0.012281 -0.000005 0.000001 0.000002 0.000003 -0.000003 -0.000007 -0.000007 -0.000002 -0.000000 0.000003 -0.000003 0.000000 0.039230 -0.011402 0.008390 -0.000004 0.000000 0.000001 -0.000003 0.000001 -0.000002 -0.000004 0.000001 0.000001 0.000002 0.000000 0.000004 0.043418 0.002450 0.002889 -0.000005 0.000001 -0.000005 -0.000000 0.000001 -0.000002 0.000001 0.000003 -0.000000 -0.000002 -0.000006 0.000001 -0.016662 0.078957 0.057696 -6.700461 7.146993 -41.566397 -0.176972 -0.020537 -0.095144 -27.581390 1.328390 30.916995 34.455070 4.950313 -104.596854 -0.000000 0.000007 -0.000001 -0.021773 -0.038278 0.012988 -0.000001 0.000000 0.000000 0.000001 0.000001 -0.000005 0.000001 0.000001 -0.000008 -0.000001 0.000002 0.000003 0.009114 -0.002381 -0.024212 0.000001 -0.000001 -0.000001 -0.000000 -0.000000 -0.000003 -0.000004 -0.000001 -0.000006 -0.032828 -0.025095 0.012286 -0.000001 0.000001 -0.000006 0.000002 -0.000001 0.000002 0.000003 0.000000 -0.000000 -0.000001 0.000004 -0.000009 -0.039192 -0.011488 0.008390 -0.000001 0.000000 0.000001 -0.000003 0.000005 0.000002 0.000001 0.000000 -0.000000 0.000001 0.000003 -0.000001 -0.043421 0.002443 0.002845 -0.000000 -0.000000 0.000002 -0.000005 0.000006 -0.000001 -0.000003 -0.000003 0.000000 -0.000004 0.000002 0.000001 -0.000000 0.000000 0.000000 -1.628850 -0.405826 4.005225 45.862057 0.161519 -0.009478 16.830203 -0.802431 8.125639 -0.000003 0.000000 -0.000000 -0.000001 -0.000001 -0.000000 -0.000002 -0.000000 0.000000 -0.038000 -0.085200 0.016200 -0.000002 -0.000000 0.000001 -0.000000 0.000000 0.000000 -1.606248 -0.404009 5.239562 40.265905 0.343402 6.819288 27.802599 -0.621307 6.281970 0.000000 -0.000000 -0.000000 0.000001 -0.000001 0.000000 0.000003 -0.000000 -0.000001 0.038000 -0.085200 0.016200 -0.000004 0.000000 -0.000001 
-0.003060 0.224533 0.003647 -22.239745 4.531478 94.867557 -0.000001 0.000000 -0.000001 0.000000 0.000002 -0.000000 0.000000 0.000001 0.000000 0.000001 -0.000000 -0.000000 0.000924 0.155148 0.009274 -9.082201 0.008789 -22.214237 0.019937 0.078966 0.057518 -15.944341 7.939859 51.268599 0.177025 -0.020465 -0.095062 -44.545459 -4.729320 -33.563451 46.387004 -9.416457 107.088617 -0.000002 -0.000002 -0.000000 0.021770 -0.038291 0.012954 0.000002 -0.000001 0.000001 -0.000001 -0.000003 -0.000001 0.000004 0.000001 0.000001 -0.000002 0.000001 0.000002 -0.009090 -0.002348 -0.024224 -0.000003 -0.000004 -0.000000 0.000000 0.000000 0.000001 0.000001 0.000004 -0.000002 0.032823 -0.025104 0.012281 -0.000000 -0.000003 0.000004 -0.000002 0.000001 -0.000003 -0.000003 -0.000003 0.000001 -0.000002 0.000000 -0.000001 0.039230 -0.011402 0.008390 -0.000001 -0.000002 0.000008 0.000004 -0.000000 -0.000002 0.000000 0.000003 0.000006 -0.000001 -0.000004 0.000003 0.043417 0.002450 0.002889 -0.000002 -0.000004 0.000000 -0.000004 -0.000006 0.000005 0.000004 0.000003 -0.000003 -0.000000 0.000001 -0.000000 -0.016662 0.078957 0.057696 -15.647584 7.707209 -37.127860 -0.176972 -0.020537 -0.095144 -25.611644 1.753357 29.560953 35.871897 -3.580611 -113.514063 -0.000002 -0.000000 0.000000 -0.021773 -0.038278 0.012988 0.000001 -0.000001 -0.000003 -0.000001 0.000001 -0.000005 -0.000003 0.000001 -0.000004 -0.000003 0.000002 0.000002 0.009113 -0.002381 -0.024211 0.000002 -0.000002 -0.000003 -0.000002 -0.000001 -0.000001 -0.000001 0.000000 -0.000003 -0.032828 -0.025095 0.012286 0.000001 0.000001 -0.000003 -0.000003 0.000003 -0.000003 -0.000000 0.000003 -0.000000 -0.000004 0.000006 -0.000007 -0.039192 -0.011488 0.008390 0.000003 0.000000 0.000001 -0.000002 0.000003 -0.000003 -0.000001 0.000001 -0.000004 -0.000003 0.000000 -0.000004 -0.043421 0.002443 0.002844 0.000000 0.000000 -0.000001 -0.000007 0.000002 -0.000001 0.000004 -0.000003 0.000002 -0.000002 0.000000 -0.000005 0.000000 0.000000 -0.000000 -1.623485 -0.641311 6.895917 41.283289 0.454822 4.011174 18.154103 -1.405619 14.335570 -0.000002 0.000001 0.000001 -0.000002 -0.000002 -0.000001 0.000000 0.000000 0.000000 -0.038000 -0.085200 0.016200 0.000001 -0.000000 -0.000000 0.000000 0.000000 -0.000000 -1.607993 -0.639270 8.130283 39.566056 0.672466 11.138158 25.196011 -1.192825 12.127307 0.000002 -0.000000 -0.000000 -0.000001 -0.000001 -0.000000 0.000002 -0.000001 -0.000002 0.038000 -0.085200 0.016200 -0.000005 -0.000003 -0.000000 
-0.002536 0.223751 0.003261 -22.480494 5.193767 95.110350 0.000001 0.000001 0.000000 -0.000001 -0.000002 0.000000 0.000001 -0.000000 -0.000000 0.000001 -0.000001 0.000001 0.000924 0.155148 0.009274 -11.074077 0.014113 -22.703095 0.019937 0.078966 0.057518 -16.297818 8.557186 53.968811 0.177025 -0.020465 -0.095062 -40.364058 -4.276906 -31.959323 39.133845 -6.435949 104.704143 -0.000003 0.000003 0.000004 0.021770 -0.038291 0.012954 0.000000 0.000000 0.000001 0.000002 0.000001 -0.000000 -0.000003 -0.000000 0.000005 -0.000006 0.000000 0.000003 -0.009090 -0.002348 -0.024223 0.000003 -0.000003 -0.000003 -0.000004 -0.000002 0.000005 0.000005 0.000000 -0.000001 0.032823 -0.025104 0.012281 -0.000001 0.000001 0.000004 0.000002 -0.000003 -0.000004 -0.000005 -0.000002 0.000001 0.000002 0.000002 -0.000004 0.039230 -0.011402 0.008390 0.000001 0.000001 0.000001 -0.000003 0.000005 -0.000000 0.000002 0.000005 0.000005 -0.000002 -0.000000 0.000000 0.043417 0.002450 0.002889 -0.000001 -0.000000 -0.000002 -0.000002 0.000000 -0.000002 0.000001 -0.000003 -0.000004 -0.000001 -0.000002 -0.000002 -0.016662 0.078957 0.057696 -19.207421 8.693263 -38.001547 -0.176972 -0.020537 -0.095144 -30.451377 5.120577 28.781516 34.124274 -5.272240 -114.132775 -0.000001 0.000002 0.000003 -0.021773 -0.038278 0.012988 -0.000001 -0.000001 -0.000002 -0.000004 0.000002 -0.000001 -0.000003 0.000003 -0.000008 0.000003 0.000004 0.000003 0.009114 -0.002381 -0.024211 -0.000001 -0.000001 -0.000001 0.000001 -0.000004 0.000000 0.000001 -0.000002 -0.000003 -0.032828 -0.025095 0.012286 0.000004 0.000001 -0.000003 -0.000000 0.000002 0.000001 0.000001 0.000002 -0.000002 -0.000004 0.000002 -0.000009 -0.039192 -0.011488 0.008390 0.000000 0.000006 -0.000000 -0.000006 0.000003 -0.000003 0.000001 -0.000001 0.000002 0.000003 0.000008 -0.000000 -0.043421 0.002443 0.002845 -0.000002 0.000002 -0.000003 -0.000004 0.000009 -0.000001 -0.000002 -0.000003 0.000002 -0.000004 -0.000002 -0.000005 0.000000 0.000000 0.000000 -1.602194 -0.653750 7.082527 40.281614 0.479694 4.396850 17.127779 -1.218673 12.395803 0.000000 0.000000 0.000001 -0.000001 0.000002 0.000000 -0.000002 0.000000 0.000001 -0.038000 -0.085200 0.016200 0.000001 0.000001 0.000001 0.000000 0.000000 0.000000 -1.587398 -0.651755 8.316887 38.761136 0.679101 11.165407 23.543749 -1.103674 11.208456 0.000000 -0.000001 -0.000001 -0.000000 0.000002 -0.000000 0.000007 -0.000000 -0.000000 0.038000 -0.085200 0.016200 0.000001 0.000000 -0.000000 
-0.002866 0.221848 0.003704 -19.855211 5.566996 94.302052 -0.000000 0.000002 -0.000001 -0.000001 0.000001 -0.000000 0.000000 0.000001 -0.000000 0.000001 0.000002 -0.000000 0.000924 0.155147 0.009274 -9.303224 0.012973 -20.664947 0.019937 0.078966 0.057518 -12.569013 8.083093 54.209927 0.177025 -0.020465 -0.095062 -38.949891 -14.929607 -21.880115 16.595586 -14.019561 73.723341 0.000003 -0.000004 -0.000005 0.021770 -0.038291 0.012954 0.000002 0.000002 0.000001 -0.000001 0.000000 0.000001 -0.000001 -0.000000 0.000005 0.000004 0.000001 -0.000000 -0.009090 -0.002348 -0.024223 -0.000005 0.000000 0.000001 0.000003 0.000003 -0.000000 -0.000002 -0.000002 0.000001 0.032823 -0.025104 0.012281 -0.000000 0.000003 0.000007 0.000001 0.000003 -0.000003 -0.000003 -0.000002 0.000003 -0.000002 0.000003 0.000003 0.039230 -0.011402 0.008390 0.000003 -0.000000 0.000004 -0.000001 -0.000001 -0.000002 -0.000000 0.000003 0.000006 -0.000003 -0.000002 0.000001 0.043417 0.002450 0.002889 0.000003 0.000002 -0.000000 0.000003 -0.000006 -0.000000 0.000006 -0.000002 0.000003 -0.000005 0.000000 0.000002 -0.016662 0.078956 0.057696 -18.572234 8.523657 -39.517630 -0.176972 -0.020537 -0.095144 -29.604673 11.924709 19.839584 28.258127 1.932228 -103.035637 0.000002 -0.000000 0.000002 -0.021773 -0.038278 0.012988 -0.000003 -0.000003 -0.000003 -0.000002 0.000000 -0.000003 -0.000003 -0.000002 -0.000003 -0.000004 0.000005 -0.000000 0.009114 -0.002381 -0.024212 -0.000003 -0.000004 -0.000001 -0.000001 -0.000001 0.000005 0.000002 -0.000000 -0.000003 -0.032828 -0.025095 0.012286 -0.000005 -0.000000 -0.000001 -0.000000 -0.000000 -0.000003 0.000001 0.000005 -0.000000 -0.000004 0.000003 -0.000006 -0.039192 -0.011488 0.008390 -0.000004 -0.000001 -0.000000 0.000001 0.000003 -0.000002 -0.000007 0.000000 -0.000000 -0.000001 0.000003 -0.000004 -0.043421 0.002443 0.002845 -0.000001 0.000000 -0.000001 -0.000005 0.000004 -0.000002 -0.000005 -0.000004 -0.000002 -0.000001 0.000000 0.000000 -0.000000 0.000000 0.000000 -1.667841 -0.599354 6.318127 40.864045 0.447994 3.956146 16.234253 -1.061096 10.772185 -0.000005 0.000001 -0.000000 -0.000000 -0.000000 -0.000000 0.000000 0.000000 0.000001 -0.038000 -0.085200 0.016200 0.000002 0.000002 -0.000001 -0.000000 0.000000 0.000000 -1.650394 -0.597240 7.552491 38.482399 0.607645 10.198758 23.012306 -0.947388 9.604743 0.000000 0.000000 -0.000001 0.000002 -0.000002 -0.000001 0.000002 0.000001 0.000001 0.038000 -0.085200 0.016200 0.000000 0.000000 0.000001 
